<?xml version="1.0" encoding="us-ascii" standalone="no"?><svg xmlns="http://www.w3.org/2000/svg" xmlns:xlink="http://www.w3.org/1999/xlink" contentStyleType="text/css" height="300px" preserveAspectRatio="none" style="width:301px;height:300px;background:#FFFFFF;" version="1.1" viewBox="0 0 301 300" width="301px" zoomAndPan="magnify"><defs/><g><line style="stroke:#C0C0C0;stroke-width:1.0;" x1="0" x2="0" y1="6" y2="292.875"/><line style="stroke:#C0C0C0;stroke-width:1.0;" x1="16" x2="16" y1="6" y2="292.875"/><line style="stroke:#C0C0C0;stroke-width:1.0;" x1="32" x2="32" y1="6" y2="292.875"/><line style="stroke:#C0C0C0;stroke-width:1.0;" x1="48" x2="48" y1="6" y2="292.875"/><line style="stroke:#C0C0C0;stroke-width:1.0;" x1="64" x2="64" y1="6" y2="292.875"/><line style="stroke:#C0C0C0;stroke-width:1.0;" x1="80" x2="80" y1="6" y2="292.875"/><line style="stroke:#C0C0C0;stroke-width:1.0;" x1="96" x2="96" y1="6" y2="292.875"/><line style="stroke:#C0C0C0;stroke-width:1.0;" x1="112" x2="112" y1="6" y2="292.875"/><line style="stroke:#C0C0C0;stroke-width:1.0;" x1="128" x2="128" y1="6" y2="292.875"/><line style="stroke:#C0C0C0;stroke-width:1.0;" x1="144" x2="144" y1="6" y2="292.875"/><line style="stroke:#C0C0C0;stroke-width:1.0;" x1="160" x2="160" y1="6" y2="292.875"/><text fill="#000000" font-family="sans-serif" font-size="10" lengthAdjust="spacing" textLength="7" x="4.5" y="9.2822">1</text><text fill="#000000" font-family="sans-serif" font-size="10" lengthAdjust="spacing" textLength="6" x="21" y="9.2822">2</text><text fill="#000000" font-family="sans-serif" font-size="10" lengthAdjust="spacing" textLength="7" x="36.5" y="9.2822">3</text><text fill="#000000" font-family="sans-serif" font-size="10" lengthAdjust="spacing" textLength="7" x="52.5" y="9.2822">4</text><text fill="#000000" font-family="sans-serif" font-size="10" lengthAdjust="spacing" textLength="6" x="69" y="9.2822">5</text><text fill="#000000" font-family="sans-serif" font-size="10" lengthAdjust="spacing" textLength="7" x="84.5" y="9.2822">6</text><text fill="#000000" font-family="sans-serif" font-size="10" lengthAdjust="spacing" textLength="6" x="101" y="9.2822">7</text><text fill="#000000" font-family="sans-serif" font-size="10" lengthAdjust="spacing" textLength="7" x="116.5" y="9.2822">8</text><text fill="#000000" font-family="sans-serif" font-size="10" lengthAdjust="spacing" textLength="7" x="132.5" y="9.2822">9</text><text fill="#000000" font-family="sans-serif" font-size="10" lengthAdjust="spacing" textLength="14" x="145" y="9.2822">10</text><line style="stroke:#181818;stroke-width:1.5;" x1="7" x2="7" y1="47.6094" y2="58.0117"/><line style="stroke:#181818;stroke-width:1.5;" x1="7" x2="15" y1="58.0117" y2="58.0117"/><polygon fill="#181818" points="11,54.0117,11,58.0117,11,62.0117,15,58.0117" style="stroke:#181818;stroke-width:1.5;"/><line style="stroke:#181818;stroke-width:1.5;" x1="23" x2="23" y1="64.4141" y2="74.8164"/><line style="stroke:#181818;stroke-width:1.5;" x1="23" x2="31" y1="74.8164" y2="74.8164"/><polygon fill="#181818" points="27,70.8164,27,74.8164,27,78.8164,31,74.8164" style="stroke:#181818;stroke-width:1.5;"/><line style="stroke:#181818;stroke-width:1.5;" x1="23" x2="23" y1="64.4141" y2="91.6211"/><line style="stroke:#181818;stroke-width:1.5;" x1="23" x2="31" y1="91.6211" y2="91.6211"/><polygon fill="#181818" points="27,87.6211,27,91.6211,27,95.6211,31,91.6211" style="stroke:#181818;stroke-width:1.5;"/><line style="stroke:#181818;stroke-width:1.5;" x1="39" x2="39" y1="98.0234" y2="108.4258"/><line style="stroke:#181818;stroke-width:1.5;" x1="39" x2="47" y1="108.4258" y2="108.4258"/><polygon fill="#181818" points="43,104.4258,43,108.4258,43,112.4258,47,108.4258" style="stroke:#181818;stroke-width:1.5;"/><line style="stroke:#181818;stroke-width:1.5;" x1="23" x2="23" y1="64.4141" y2="125.2305"/><line style="stroke:#181818;stroke-width:1.5;" x1="23" x2="31" y1="125.2305" y2="125.2305"/><polygon fill="#181818" points="27,121.2305,27,125.2305,27,129.2305,31,125.2305" style="stroke:#181818;stroke-width:1.5;"/><line style="stroke:#181818;stroke-width:1.5;" x1="39" x2="39" y1="131.6328" y2="142.0352"/><line style="stroke:#181818;stroke-width:1.5;" x1="39" x2="47" y1="142.0352" y2="142.0352"/><polygon fill="#181818" points="43,138.0352,43,142.0352,43,146.0352,47,142.0352" style="stroke:#181818;stroke-width:1.5;"/><line style="stroke:#181818;stroke-width:1.5;" x1="55" x2="55" y1="148.4375" y2="158.8398"/><line style="stroke:#181818;stroke-width:1.5;" x1="55" x2="63" y1="158.8398" y2="158.8398"/><polygon fill="#181818" points="59,154.8398,59,158.8398,59,162.8398,63,158.8398" style="stroke:#181818;stroke-width:1.5;"/><line style="stroke:#181818;stroke-width:1.5;" x1="71" x2="71" y1="165.2422" y2="175.6445"/><line style="stroke:#181818;stroke-width:1.5;" x1="71" x2="79" y1="175.6445" y2="175.6445"/><polygon fill="#181818" points="75,171.6445,75,175.6445,75,179.6445,79,175.6445" style="stroke:#181818;stroke-width:1.5;"/><line style="stroke:#181818;stroke-width:1.5;" x1="55" x2="55" y1="81.2188" y2="192.4492"/><line style="stroke:#181818;stroke-width:1.5;" x1="55" x2="63" y1="192.4492" y2="192.4492"/><polygon fill="#181818" points="59,188.4492,59,192.4492,59,196.4492,63,192.4492" style="stroke:#181818;stroke-width:1.5;"/><line style="stroke:#181818;stroke-width:1.5;" x1="23" x2="23" y1="64.4141" y2="209.2539"/><line style="stroke:#181818;stroke-width:1.5;" x1="23" x2="31" y1="209.2539" y2="209.2539"/><polygon fill="#181818" points="27,205.2539,27,209.2539,27,213.2539,31,209.2539" style="stroke:#181818;stroke-width:1.5;"/><line style="stroke:#181818;stroke-width:1.5;" x1="87" x2="87" y1="182.0469" y2="226.0586"/><line style="stroke:#181818;stroke-width:1.5;" x1="87" x2="95" y1="226.0586" y2="226.0586"/><polygon fill="#181818" points="91,222.0586,91,226.0586,91,230.0586,95,226.0586" style="stroke:#181818;stroke-width:1.5;"/><line style="stroke:#181818;stroke-width:1.5;" x1="87" x2="87" y1="182.0469" y2="242.8633"/><line style="stroke:#181818;stroke-width:1.5;" x1="87" x2="95" y1="242.8633" y2="242.8633"/><polygon fill="#181818" points="91,238.8633,91,242.8633,91,246.8633,95,242.8633" style="stroke:#181818;stroke-width:1.5;"/><line style="stroke:#181818;stroke-width:1.5;" x1="87" x2="87" y1="198.8516" y2="259.668"/><line style="stroke:#181818;stroke-width:1.5;" x1="87" x2="95" y1="259.668" y2="259.668"/><polygon fill="#181818" points="91,255.668,91,259.668,91,263.668,95,259.668" style="stroke:#181818;stroke-width:1.5;"/><line style="stroke:#181818;stroke-width:1.5;" x1="135" x2="135" y1="266.0703" y2="276.4727"/><line style="stroke:#181818;stroke-width:1.5;" x1="135" x2="143" y1="276.4727" y2="276.4727"/><polygon fill="#181818" points="139,272.4727,139,276.4727,139,280.4727,143,276.4727" style="stroke:#181818;stroke-width:1.5;"/><line style="stroke:#181818;stroke-width:1.5;" x1="120" x2="120" y1="232.4609" y2="276.4727"/><line style="stroke:#181818;stroke-width:1.5;" x1="120" x2="143" y1="276.4727" y2="276.4727"/><polygon fill="#181818" points="139,272.4727,139,276.4727,139,280.4727,143,276.4727" style="stroke:#181818;stroke-width:1.5;"/><rect fill="#E2E2F0" height="12.8047" style="stroke:none;stroke-width:1.0;" width="12" x="2" y="18"/><line style="stroke:#181818;stroke-width:1.0;" x1="2" x2="14" y1="18" y2="18"/><line style="stroke:#181818;stroke-width:1.0;" x1="2" x2="14" y1="30.8047" y2="30.8047"/><line style="stroke:#181818;stroke-width:1.0;" x1="2" x2="2" y1="18" y2="30.8047"/><line style="stroke:#181818;stroke-width:1.0;" x1="14" x2="14" y1="18" y2="30.8047"/><rect fill="#E2E2F0" height="12.8047" style="stroke:none;stroke-width:1.0;" width="12" x="2" y="34.8047"/><line style="stroke:#181818;stroke-width:1.0;" x1="2" x2="14" y1="34.8047" y2="34.8047"/><line style="stroke:#181818;stroke-width:1.0;" x1="2" x2="14" y1="47.6094" y2="47.6094"/><line style="stroke:#181818;stroke-width:1.0;" x1="2" x2="2" y1="34.8047" y2="47.6094"/><line style="stroke:#181818;stroke-width:1.0;" x1="14" x2="14" y1="34.8047" y2="47.6094"/><rect fill="#E2E2F0" height="12.8047" style="stroke:none;stroke-width:1.0;" width="12" x="18" y="51.6094"/><line style="stroke:#181818;stroke-width:1.0;" x1="18" x2="30" y1="51.6094" y2="51.6094"/><line style="stroke:#181818;stroke-width:1.0;" x1="18" x2="30" y1="64.4141" y2="64.4141"/><line style="stroke:#181818;stroke-width:1.0;" x1="18" x2="18" y1="51.6094" y2="64.4141"/><line style="stroke:#181818;stroke-width:1.0;" x1="30" x2="30" y1="51.6094" y2="64.4141"/><rect fill="#E2E2F0" height="12.8047" style="stroke:none;stroke-width:1.0;" width="28" x="34" y="68.4141"/><line style="stroke:#181818;stroke-width:1.0;" x1="34" x2="62" y1="68.4141" y2="68.4141"/><line style="stroke:#181818;stroke-width:1.0;" x1="34" x2="62" y1="81.2188" y2="81.2188"/><line style="stroke:#181818;stroke-width:1.0;" x1="34" x2="34" y1="68.4141" y2="81.2188"/><line style="stroke:#181818;stroke-width:1.0;" x1="62" x2="62" y1="68.4141" y2="81.2188"/><rect fill="#E2E2F0" height="12.8047" style="stroke:none;stroke-width:1.0;" width="12" x="34" y="85.2188"/><line style="stroke:#181818;stroke-width:1.0;" x1="34" x2="46" y1="85.2188" y2="85.2188"/><line style="stroke:#181818;stroke-width:1.0;" x1="34" x2="46" y1="98.0234" y2="98.0234"/><line style="stroke:#181818;stroke-width:1.0;" x1="34" x2="34" y1="85.2188" y2="98.0234"/><line style="stroke:#181818;stroke-width:1.0;" x1="46" x2="46" y1="85.2188" y2="98.0234"/><rect fill="#E2E2F0" height="12.8047" style="stroke:none;stroke-width:1.0;" width="12" x="50" y="102.0234"/><line style="stroke:#181818;stroke-width:1.0;" x1="50" x2="62" y1="102.0234" y2="102.0234"/><line style="stroke:#181818;stroke-width:1.0;" x1="50" x2="62" y1="114.8281" y2="114.8281"/><line style="stroke:#181818;stroke-width:1.0;" x1="50" x2="50" y1="102.0234" y2="114.8281"/><line style="stroke:#181818;stroke-width:1.0;" x1="62" x2="62" y1="102.0234" y2="114.8281"/><rect fill="#E2E2F0" height="12.8047" style="stroke:none;stroke-width:1.0;" width="12" x="34" y="118.8281"/><line style="stroke:#181818;stroke-width:1.0;" x1="34" x2="46" y1="118.8281" y2="118.8281"/><line style="stroke:#181818;stroke-width:1.0;" x1="34" x2="46" y1="131.6328" y2="131.6328"/><line style="stroke:#181818;stroke-width:1.0;" x1="34" x2="34" y1="118.8281" y2="131.6328"/><line style="stroke:#181818;stroke-width:1.0;" x1="46" x2="46" y1="118.8281" y2="131.6328"/><rect fill="#E2E2F0" height="12.8047" style="stroke:none;stroke-width:1.0;" width="12" x="50" y="135.6328"/><line style="stroke:#181818;stroke-width:1.0;" x1="50" x2="62" y1="135.6328" y2="135.6328"/><line style="stroke:#181818;stroke-width:1.0;" x1="50" x2="62" y1="148.4375" y2="148.4375"/><line style="stroke:#181818;stroke-width:1.0;" x1="50" x2="50" y1="135.6328" y2="148.4375"/><line style="stroke:#181818;stroke-width:1.0;" x1="62" x2="62" y1="135.6328" y2="148.4375"/><rect fill="#E2E2F0" height="12.8047" style="stroke:none;stroke-width:1.0;" width="12" x="66" y="152.4375"/><line style="stroke:#181818;stroke-width:1.0;" x1="66" x2="78" y1="152.4375" y2="152.4375"/><line style="stroke:#181818;stroke-width:1.0;" x1="66" x2="78" y1="165.2422" y2="165.2422"/><line style="stroke:#181818;stroke-width:1.0;" x1="66" x2="66" y1="152.4375" y2="165.2422"/><line style="stroke:#181818;stroke-width:1.0;" x1="78" x2="78" y1="152.4375" y2="165.2422"/><rect fill="#E2E2F0" height="12.8047" style="stroke:none;stroke-width:1.0;" width="12" x="82" y="169.2422"/><line style="stroke:#181818;stroke-width:1.0;" x1="82" x2="94" y1="169.2422" y2="169.2422"/><line style="stroke:#181818;stroke-width:1.0;" x1="82" x2="94" y1="182.0469" y2="182.0469"/><line style="stroke:#181818;stroke-width:1.0;" x1="82" x2="82" y1="169.2422" y2="182.0469"/><line style="stroke:#181818;stroke-width:1.0;" x1="94" x2="94" y1="169.2422" y2="182.0469"/><rect fill="#E2E2F0" height="12.8047" style="stroke:none;stroke-width:1.0;" width="28" x="66" y="186.0469"/><line style="stroke:#181818;stroke-width:1.0;" x1="66" x2="94" y1="186.0469" y2="186.0469"/><line style="stroke:#181818;stroke-width:1.0;" x1="66" x2="94" y1="198.8516" y2="198.8516"/><line style="stroke:#181818;stroke-width:1.0;" x1="66" x2="66" y1="186.0469" y2="198.8516"/><line style="stroke:#181818;stroke-width:1.0;" x1="94" x2="94" y1="186.0469" y2="198.8516"/><rect fill="#E2E2F0" height="12.8047" style="stroke:none;stroke-width:1.0;" width="12" x="34" y="202.8516"/><line style="stroke:#181818;stroke-width:1.0;" x1="34" x2="46" y1="202.8516" y2="202.8516"/><line style="stroke:#181818;stroke-width:1.0;" x1="34" x2="46" y1="215.6563" y2="215.6563"/><line style="stroke:#181818;stroke-width:1.0;" x1="34" x2="34" y1="202.8516" y2="215.6563"/><line style="stroke:#181818;stroke-width:1.0;" x1="46" x2="46" y1="202.8516" y2="215.6563"/><rect fill="#E2E2F0" height="12.8047" style="stroke:none;stroke-width:1.0;" width="28" x="98" y="219.6563"/><line style="stroke:#181818;stroke-width:1.0;" x1="98" x2="126" y1="219.6563" y2="219.6563"/><line style="stroke:#181818;stroke-width:1.0;" x1="98" x2="126" y1="232.4609" y2="232.4609"/><line style="stroke:#181818;stroke-width:1.0;" x1="98" x2="98" y1="219.6563" y2="232.4609"/><line style="stroke:#181818;stroke-width:1.0;" x1="126" x2="126" y1="219.6563" y2="232.4609"/><rect fill="#E2E2F0" height="12.8047" style="stroke:none;stroke-width:1.0;" width="12" x="98" y="236.4609"/><line style="stroke:#181818;stroke-width:1.0;" x1="98" x2="110" y1="236.4609" y2="236.4609"/><line style="stroke:#181818;stroke-width:1.0;" x1="98" x2="110" y1="249.2656" y2="249.2656"/><line style="stroke:#181818;stroke-width:1.0;" x1="98" x2="98" y1="236.4609" y2="249.2656"/><line style="stroke:#181818;stroke-width:1.0;" x1="110" x2="110" y1="236.4609" y2="249.2656"/><rect fill="#E2E2F0" height="12.8047" style="stroke:none;stroke-width:1.0;" width="44" x="98" y="253.2656"/><line style="stroke:#181818;stroke-width:1.0;" x1="98" x2="142" y1="253.2656" y2="253.2656"/><line style="stroke:#181818;stroke-width:1.0;" x1="98" x2="142" y1="266.0703" y2="266.0703"/><line style="stroke:#181818;stroke-width:1.0;" x1="98" x2="98" y1="253.2656" y2="266.0703"/><line style="stroke:#181818;stroke-width:1.0;" x1="142" x2="142" y1="253.2656" y2="266.0703"/><rect fill="#E2E2F0" height="12.8047" style="stroke:none;stroke-width:1.0;" width="12" x="146" y="270.0703"/><line style="stroke:#181818;stroke-width:1.0;" x1="146" x2="158" y1="270.0703" y2="270.0703"/><line style="stroke:#181818;stroke-width:1.0;" x1="146" x2="158" y1="282.875" y2="282.875"/><line style="stroke:#181818;stroke-width:1.0;" x1="146" x2="146" y1="270.0703" y2="282.875"/><line style="stroke:#181818;stroke-width:1.0;" x1="158" x2="158" y1="270.0703" y2="282.875"/><text fill="#000000" font-family="sans-serif" font-size="11" lengthAdjust="spacing" textLength="96" x="18" y="28.2104">P1 Product scope</text><text fill="#000000" font-family="sans-serif" font-size="11" lengthAdjust="spacing" textLength="124" x="18" y="45.0151">P2 Tasks specification</text><text fill="#000000" font-family="sans-serif" font-size="11" lengthAdjust="spacing" textLength="133" x="34" y="61.8198">P3 Kick-off &amp; Alignment</text><text fill="#000000" font-family="sans-serif" font-size="11" lengthAdjust="spacing" textLength="121" x="66" y="78.6245">D1 Dev environment</text><text fill="#000000" font-family="sans-serif" font-size="11" lengthAdjust="spacing" textLength="79" x="50" y="95.4292">D2 Main page</text><text fill="#000000" font-family="sans-serif" font-size="11" lengthAdjust="spacing" textLength="128" x="66" y="112.2339">D3 Management page</text><text fill="#000000" font-family="sans-serif" font-size="11" lengthAdjust="spacing" textLength="91" x="50" y="129.0386">D4 URL creation</text><text fill="#000000" font-family="sans-serif" font-size="11" lengthAdjust="spacing" textLength="106" x="66" y="145.8433">D5 URL redirection</text><text fill="#000000" font-family="sans-serif" font-size="11" lengthAdjust="spacing" textLength="66" x="82" y="162.6479">D6 URL info</text><text fill="#000000" font-family="sans-serif" font-size="11" lengthAdjust="spacing" textLength="122" x="98" y="179.4526">D7 URL management</text><text fill="#000000" font-family="sans-serif" font-size="11" lengthAdjust="spacing" textLength="114" x="98" y="196.2573">Q1 QA environment</text><text fill="#000000" font-family="sans-serif" font-size="11" lengthAdjust="spacing" textLength="148" x="50" y="213.062">Q2 Test plan specificaiton</text><text fill="#000000" font-family="sans-serif" font-size="11" lengthAdjust="spacing" textLength="62" x="130" y="229.8667">Q3 Testing</text><text fill="#000000" font-family="sans-serif" font-size="11" lengthAdjust="spacing" textLength="53" x="114" y="246.6714">Q4 Fixing</text><text fill="#000000" font-family="sans-serif" font-size="11" lengthAdjust="spacing" textLength="153" x="146" y="263.4761">R1 Production environment</text><text fill="#000000" font-family="sans-serif" font-size="11" lengthAdjust="spacing" textLength="118" x="162" y="280.2808">R2 Release approval</text><text fill="#000000" font-family="sans-serif" font-size="10" lengthAdjust="spacing" textLength="7" x="4.5" y="297.1572">1</text><text fill="#000000" font-family="sans-serif" font-size="10" lengthAdjust="spacing" textLength="6" x="21" y="297.1572">2</text><text fill="#000000" font-family="sans-serif" font-size="10" lengthAdjust="spacing" textLength="7" x="36.5" y="297.1572">3</text><text fill="#000000" font-family="sans-serif" font-size="10" lengthAdjust="spacing" textLength="7" x="52.5" y="297.1572">4</text><text fill="#000000" font-family="sans-serif" font-size="10" lengthAdjust="spacing" textLength="6" x="69" y="297.1572">5</text><text fill="#000000" font-family="sans-serif" font-size="10" lengthAdjust="spacing" textLength="7" x="84.5" y="297.1572">6</text><text fill="#000000" font-family="sans-serif" font-size="10" lengthAdjust="spacing" textLength="6" x="101" y="297.1572">7</text><text fill="#000000" font-family="sans-serif" font-size="10" lengthAdjust="spacing" textLength="7" x="116.5" y="297.1572">8</text><text fill="#000000" font-family="sans-serif" font-size="10" lengthAdjust="spacing" textLength="7" x="132.5" y="297.1572">9</text><text fill="#000000" font-family="sans-serif" font-size="10" lengthAdjust="spacing" textLength="14" x="145" y="297.1572">10</text><!--SRC=[TPDFRzem68Vl-HJlQO83rVA7C76OsersKqSa4g0Nr8DhEv55i1FRoTPlNpkOW6Rr6FmyUT_V3-TUQIHrXRZMmM4JmaOAqc4D2ek6lW9IS6Z2LwYHqWf28EXT6Iw27L971QgXc9KC8yq4TtJaqJ7yOVWu4sK9N-2XPXK_KQuT7l-FsnVClWydmM4LmehsG7dFfBZHoBXJTD7YisPEZ1P1XXY71bKk1F7M6eN82h4HkA7jY5lDMu-uzSYmNWBxOWrOqfi6IFBfgCGwyy6Hb319yOqszqObJfjRBHqqnalX-DJZvuvFBRyO-DEOobaBpqgTjJ1M7aB-uDVTUdNRFy1QhQqxD_U1AjDRZVZrJZ1zYTP-Mdvhoy_ZGMUySdZiJLiut9QU9_34_brfh-wHjdKNuvqsJVl9v9WiTdRhaacRh8YWe3L5YW9g6YbwL3lFYoGldetKnjU7Uyh9-GCBDgOWlS_Mq5Efx3xXNVGrIkx2DwfHEDdp8nT_EM1nQbXDGRCJdGQJNvirAD59J84mfILxwsoOQV2CUWH5nost1FiqsMLJs3vUVeJ7QzxW-IKxG_1Rw6qZz02doUm7qx2bqkm4BrcmeYNgQcrKB8XfUGdxtTFiMx16lEhCNLgQ4eEVmWoGx-Pi-m40]--></g></svg>